<svg xmlns="http://www.w3.org/2000/svg" viewBox="0 10 100 80"><title>airplane</title><path d="M98.6,40.39c-3.64,3.75-18,7.46-28.34,10,0,0,0,0,0,.06Q64.92,61.94,59.56,73.41c-1.16,2.48-2.29,5-3.5,7.43a5.19,5.19,0,0,1-5.59,2.48,4.38,4.38,0,0,1-3.28-4.6c.12-7.33.22-14.67.4-22a1.83,1.83,0,0,0,0-.35c-10.79,2.92-24.24,6.54-29.79,7.93a7.08,7.08,0,0,1-4.32-.13c-1.84-.73-2.69-2.2-3.9-4-2.92-4.45-6-8.81-8.79-13.33A3.53,3.53,0,0,1,.1,44a2.4,2.4,0,0,1,.62-1,3.63,3.63,0,0,1,4.52-.2c3.2,2.36,6.42,4.7,9.61,7.08a1.54,1.54,0,0,0,1.49.27Q28.27,47,40.22,43.78c.58-.15.9-.28.85-.66a1.77,1.77,0,0,0-.26-.64Q35.2,33,29.69,23.48a4.39,4.39,0,0,1,.6-5.62,5.23,5.23,0,0,1,6.1-.58c2.25,1.56,4.46,3.18,6.69,4.78q10.28,7.38,20.54,14.79l.12.07a1.41,1.41,0,0,0,.51.22,1.75,1.75,0,0,0,.88-.06c.66-.21,10.66-3.36,16.82-4a32.81,32.81,0,0,1,6,.08A28.59,28.59,0,0,1,94.1,34c2.32.64,5.5,1.53,5.87,3.4C100.22,38.73,99,40,98.6,40.39Z"/></svg>