<svg xmlns="http://www.w3.org/2000/svg" version="1.1" viewBox="0 0 100 100">
 <path fill="#bd0606" d="m72.164 30.473 17.16 2.8242c2.8086 0.46094 5.2266 1.8867 6.9414 3.9102 1.7148 2.0234 2.7305 4.6367 2.7305 7.4727v19.832c0 2.8398-1.0156 5.4492-2.7305 7.4727s-4.1328 3.4453-6.9414 3.9102l-1.4492 0.23828v15.746c0 1.2695-1.0273 2.2969-2.2969 2.2969-0.67969 0-1.2891-0.29297-1.7109-0.76172l-14.762-14.191-27.859 4.5859c-1.7148 0.28125-3.3789 0.19922-4.957-0.23828-1.582-0.4375-3.0508-1.2227-4.3789-2.3477-1.3281-1.1289-2.3477-2.4531-3.0352-3.9414-0.69141-1.4922-1.043-3.1211-1.043-4.8555v-9.6562l-11.707 11.254c-0.42188 0.46875-1.0312 0.76172-1.7109 0.76172-1.2695 0-2.2969-1.0273-2.2969-2.2969v-15.746l-1.4492-0.23828c-2.8086-0.46094-5.2266-1.8867-6.9414-3.9102-1.7148-2.0234-2.7305-4.6367-2.7305-7.4727v-19.832c0-2.8398 1.0156-5.4492 2.7305-7.4727 1.7148-2.0234 4.1328-3.4453 6.9414-3.9102l48.074-7.9141c1.7148-0.28125 3.3789-0.19922 4.957 0.23828 1.582 0.4375 3.0508 1.2227 4.3789 2.3477 1.3281 1.1289 2.3477 2.4531 3.0352 3.9414 0.69141 1.4922 1.043 3.1211 1.043 4.8555v13.098zm-43.742 25.375c0.42188-0.46875 1.0312-0.76172 1.7109-0.76172 0.1875 0 0.37109 0.019531 0.54688 0.066406l28.809 4.7422c1.0586 0.17578 2.0664 0.12891 3-0.12891 0.92969-0.25781 1.8164-0.73828 2.6328-1.4336 0.8125-0.69141 1.4297-1.4844 1.832-2.3633 0.40625-0.87109 0.61328-1.8594 0.61328-2.9375v-35.656c0-1.0781-0.20703-2.0625-0.61328-2.9375-0.40625-0.87891-1.0195-1.6758-1.832-2.3594-0.82031-0.69531-1.7031-1.1758-2.6328-1.4336-0.9375-0.26172-1.9453-0.30469-3-0.12891l-48.078 7.9102c-1.6953 0.27734-3.1484 1.1328-4.1797 2.3477-1.0273 1.2109-1.6367 2.7891-1.6367 4.5156v19.832c0 1.7266 0.60547 3.3047 1.6367 4.5156 1.0273 1.2109 2.4844 2.0664 4.1797 2.3477l3.3789 0.55469c1.125 0.18359 1.9219 1.1562 1.9219 2.2617h0.007812v12.305l11.707-11.254zm4.0039 4.2344v12.344c0 1.0781 0.20703 2.0625 0.61328 2.9375 0.40625 0.87891 1.0234 1.6719 1.832 2.3594 0.82031 0.69531 1.7031 1.1758 2.6328 1.4336 0.93359 0.26172 1.9414 0.30469 3 0.12891l28.984-4.7695c0.6875-0.10938 1.4141 0.089844 1.957 0.61328l11.824 11.371v-12.305h0.007813c0-1.1055 0.79688-2.0781 1.9219-2.2617l3.3789-0.55469c1.6953-0.27734 3.1484-1.1328 4.1797-2.3477 1.0273-1.2109 1.6367-2.7891 1.6367-4.5156v-19.832c0-1.7266-0.60547-3.3047-1.6367-4.5156-1.0273-1.2109-2.4844-2.0664-4.1797-2.3477l-16.426-2.7031v17.914c0 1.7344-0.35547 3.3672-1.043 4.8555-0.69141 1.4883-1.707 2.8125-3.0352 3.9414-1.3242 1.1211-2.793 1.9102-4.3789 2.3477-1.5781 0.4375-3.2422 0.51953-4.957 0.23828l-26.32-4.332z"/>
</svg>