<svg xmlns="http://www.w3.org/2000/svg" xmlns:xlink="http://www.w3.org/1999/xlink" version="1.1" x="0px" y="0px" viewBox="0 0 100 100" xml:space="preserve">
<defs>
<radialGradient id="subtleRadial" cx="50%" cy="50%" r="50%">
  <stop offset="0%" stop-color="rgba(168, 166, 145, 1)" />
  <stop offset="100%" stop-color="rgba(128, 128, 128, 1)" />
</radialGradient>
</defs>
  <path fill="url(#subtleRadial)" d="M88.09,69.045c0.204,0.044,0.414,0.066,0.622,0.066c0,0,0,0,0,0c1.214,0,2.301-0.731,2.769-1.862  c1.042-2.521,1.859-5.126,2.431-7.748c0.288-1.352-0.431-2.748-1.715-3.321l-7.123-3.132c0.195-2.178,0.187-4.367-0.024-6.528  l7.052-3.102c1.286-0.575,2-2.002,1.695-3.405c-0.324-1.407-0.676-2.688-1.076-3.919c-0.403-1.239-0.873-2.481-1.438-3.798  c-0.556-1.292-1.937-2.053-3.368-1.751l-7.527,1.632c-1.086-1.85-2.366-3.627-3.817-5.297l3.919-6.72  c0.708-1.216,0.471-2.771-0.564-3.7c-2.008-1.793-4.201-3.419-6.512-4.828c-1.21-0.746-2.881-0.51-3.803,0.531l-5.11,5.719  c-2.039-0.926-4.174-1.656-6.368-2.179l-0.786-7.789c-0.138-1.386-1.233-2.502-2.605-2.654c-2.653-0.29-5.367-0.338-8.04-0.145  c-1.461,0.107-2.631,1.226-2.783,2.666l-0.772,7.616c-1.52,0.289-2.875,0.631-4.125,1.04c-0.909,0.295-1.793,0.621-2.683,0.99  l-5.18-5.8c-0.911-1.017-2.491-1.289-3.673-0.617c-2.264,1.298-4.456,2.83-6.521,4.556c-1.116,0.947-1.4,2.543-0.674,3.798  l3.835,6.574c-1.68,1.81-3.179,3.816-4.467,5.979l-7.59-1.644c-1.371-0.303-2.812,0.45-3.367,1.743  c-1.027,2.338-1.866,4.823-2.492,7.381c-0.355,1.421,0.355,2.875,1.685,3.455l7.004,3.093c-0.304,2.594-0.325,5.175-0.062,7.693  l-7.048,3.1c-1.295,0.579-2.003,2.01-1.687,3.398c0.291,1.302,0.64,2.573,1.036,3.771c0.376,1.168,0.827,2.364,1.375,3.65  c0.465,1.11,1.542,1.828,2.744,1.828c0.211,0,0.424-0.023,0.627-0.068l7.514-1.623c1.275,2.197,2.811,4.272,4.578,6.188  l-3.855,6.615c-0.73,1.246-0.451,2.835,0.665,3.781c1.991,1.681,4.13,3.198,6.356,4.506c1.194,0.707,2.813,0.474,3.758-0.561  l5.172-5.8c2.323,0.998,4.715,1.741,7.128,2.213l0.772,7.57c0.137,1.446,1.302,2.574,2.775,2.683C47.769,94.963,48.818,95,49.86,95  c1.588,0,3.212-0.085,4.832-0.255c1.37-0.152,2.465-1.268,2.603-2.652l0.786-7.744c0.984-0.236,1.892-0.49,2.76-0.772  c1.252-0.412,2.55-0.935,3.946-1.591l6.177,6.906c0.316,0.355,0.839,0.439,1.255,0.204c2.838-1.619,5.497-3.543,7.905-5.723  c1.016-0.925,1.241-2.474,0.537-3.682l-3.933-6.765c1.468-1.721,2.764-3.567,3.863-5.503L88.09,69.045z M56.544,70.361  c-2.151,0.698-4.375,1.052-6.613,1.052c0,0-0.001,0-0.001,0c-9.301,0-17.48-5.945-20.353-14.791  c-3.645-11.226,2.518-23.323,13.739-26.968c2.151-0.698,4.376-1.052,6.615-1.052c9.3,0,17.48,5.944,20.353,14.791  C73.927,54.619,67.764,66.717,56.544,70.361z"/></svg>