<svg xmlns="http://www.w3.org/2000/svg" version="1.1" viewBox="-5.0 -10.0 110.0 135.0">
 <path d="m52.082 93.75c0 1.1445-0.9375 2.082-2.082 2.082h-39.582c-3.4375 0-6.25-2.8125-6.25-6.25v-79.164c0-3.4375 2.8125-6.25 6.25-6.25h52.438c1.668 0 3.25 0.64453 4.4375 1.832l12.125 12.125c1.1875 1.1875 1.832 2.75 1.832 4.4375v4.5195c0 1.1445-0.9375 2.082-2.082 2.082s-2.082-0.9375-2.082-2.082v-4.5195c0-0.5625-0.23047-1.082-0.625-1.4805l-12.125-12.125c-0.39453-0.39453-0.91797-0.625-1.4805-0.625h-52.438c-1.1445 0-2.082 0.9375-2.082 2.082v79.168c0 1.1445 0.9375 2.082 2.082 2.082h39.582c1.1445 0 2.082 0.9375 2.082 2.082zm43.562-32.5c-0.33203 0.75-1.082 1.25-1.8945 1.25h-6.25v31.25c0 1.1445-0.9375 2.082-2.082 2.082h-25c-1.1445 0-2.082-0.9375-2.082-2.082v-31.25h-6.25c-0.83203 0-1.5625-0.48047-1.8945-1.25-0.33203-0.75-0.1875-1.625 0.35547-2.25l20.832-22.918c0.79297-0.875 2.293-0.875 3.082 0l20.832 22.918c0.5625 0.60547 0.6875 1.5 0.35547 2.25zm-6.6016-2.918-16.125-17.73-16.125 17.73h3.625c1.1445 0 2.082 0.9375 2.082 2.082v31.25h20.832v-31.25c0-1.1445 0.9375-2.082 2.082-2.082zm-57.793-31.25c5.75 0 10.418 4.668 10.418 10.418s-4.668 10.418-10.418 10.418-10.418-4.668-10.418-10.418 4.668-10.418 10.418-10.418zm0 4.168c-3.4375 0-6.25 2.8125-6.25 6.25s2.8125 6.25 6.25 6.25 6.25-2.8125 6.25-6.25-2.8125-6.25-6.25-6.25zm18.75 47.918h-27.082l8.5-11.332 4.5625 4.8945c0.41797 0.4375 1 0.6875 1.5625 0.66797 0.60547 0 1.1445-0.26953 1.543-0.73047l4.918-5.7695c0.75-0.875 0.64453-2.1875-0.23047-2.9375s-2.1875-0.64453-2.9375 0.23047l-3.3945 3.9805-4.668-5c-0.41797-0.45703-0.98047-0.6875-1.6445-0.66797-0.60547 0.042969-1.1875 0.33203-1.5625 0.83203l-12.5 16.668c-0.48047 0.625-0.54297 1.4805-0.1875 2.1875 0.35547 0.70703 1.082 1.1445 1.8555 1.1445h31.25c1.1445 0 2.082-0.9375 2.082-2.082 0-1.1445-0.9375-2.082-2.082-2.082z"/>
</svg>