<svg xmlns="http://www.w3.org/2000/svg" version="1.1" viewBox="0 2 98 98">
 <path d="m71.281 78.172c4.1367 0 7.6641 3.0039 8.3281 7.0859 0.66016 4.0859-1.7383 8.0508-5.6641 9.3594-3.9258 1.3086-8.2227-0.42188-10.145-4.0898-1.9219-3.6641-0.90234-8.1836 2.4102-10.668l-10.109-17.148c0.55078-0.28906 1.0898-0.60938 1.6094-1l10.109 17.199c1.0859-0.49219 2.2656-0.74219 3.4609-0.73828zm-23-45.68v-0.003907c-4.0117 0-7.8555 1.5938-10.691 4.4297-2.8359 2.8359-4.4297 6.6836-4.4297 10.691 0 4.0117 1.5938 7.8555 4.4297 10.691 2.8359 2.8359 6.6797 4.4297 10.691 4.4297 4.0078 0 7.8555-1.5938 10.691-4.4297 2.8359-2.8359 4.4258-6.6797 4.4258-10.691 0-4.0078-1.5898-7.8555-4.4258-10.691-2.8359-2.8359-6.6836-4.4297-10.691-4.4297zm-12 27.191-13.68 12.375c2.1055 3.0586 1.4805 7.2266-1.4297 9.5312-2.9102 2.3047-7.1094 1.957-9.6016-0.79688-2.4922-2.75-2.4219-6.9648 0.15625-9.6328 2.582-2.668 6.7891-2.8789 9.625-0.48047l13.707-12.379c0.39453 0.48047 0.8125 0.94141 1.25 1.3789zm-3-20.148-15.41-9.4766c-2.2266 2.7617-6.1172 3.5195-9.2148 1.793-3.0977-1.7227-4.5-5.4336-3.3242-8.7773 1.1797-3.3438 4.5977-5.3516 8.0938-4.7578 3.4961 0.59766 6.0508 3.6289 6.0547 7.1719 0.007812 1.0352-0.20703 2.0586-0.62891 3l15.449 9.4531c-0.36328 0.50781-0.69922 1.0391-1 1.5898zm19.871-8.1992 5.4414-15-0.003906-0.007813c-2.7969-1.5156-3.9492-4.9336-2.6523-7.8359 1.3008-2.9062 4.6172-4.3203 7.6133-3.2461 2.9961 1.0703 4.6602 4.2695 3.8203 7.3398-0.83594 3.0664-3.8984 4.9727-7.0195 4.375l-5.3516 15.039c-0.57422-0.24609-1.1641-0.45703-1.7617-0.64062zm12 14.078 16.297-1.2148c0.22656-3.5703 3.1797-6.3555 6.7578-6.3789 3.5781-0.019531 6.5625 2.7344 6.832 6.3008 0.26563 3.5703-2.2734 6.7383-5.8164 7.25-3.543 0.51172-6.875-1.8047-7.6328-5.3008l-16.32 1.2109c-0.007812-0.625-0.050781-1.25-0.12891-1.8711z" fill-rule="evenodd" fill="gold"/>
</svg>