<svg xmlns="http://www.w3.org/2000/svg" version="1.1" viewBox="0 0 100 100">
 <path d="m38.363 12.391h11.68c0.82812 0 1.5 0.67188 1.5 1.5s-0.67188 1.5-1.5 1.5h-11.68v7.668h51.305c1.0508 0 2.0117-0.43359 2.707-1.125 0.69531-0.69531 1.125-1.6523 1.125-2.707 0-1.0234-0.40625-1.9531-1.0586-2.6445l-0.066406-0.0625c-0.69531-0.69531-1.6523-1.125-2.707-1.125h-27.281c-0.82812 0-1.5-0.67188-1.5-1.5s0.67188-1.5 1.5-1.5h27.281c1.8789 0 3.5898 0.76953 4.8281 2.0039l0.085937 0.09375c1.1875 1.2305 1.918 2.9062 1.918 4.7344 0 1.8789-0.76953 3.5898-2.0039 4.8281-1.2383 1.2383-2.9453 2.0039-4.8281 2.0039h-51.305v1.5547c0 1.4531-0.59375 2.7773-1.5508 3.7305-0.95312 0.95312-2.2773 1.5508-3.7305 1.5508h-4.3867c-1.4492 0-2.7695-0.59375-3.7227-1.5469-0.96094-0.96094-1.5547-2.2812-1.5547-3.7305v-1.5547h-13.086c-1.8711 0-3.5781-0.76953-4.8203-2.0078l-0.007813-0.007813c-1.2344-1.2383-2.0039-2.9453-2.0039-4.8164 0-1.875 0.76953-3.5859 2.0039-4.8242 1.2383-1.2422 2.9453-2.0117 4.8281-2.0117h13.086v-1.5508c0-1.4492 0.59375-2.7695 1.5469-3.7266 0.96094-0.96094 2.2812-1.5547 3.7305-1.5547h4.3867c1.4531 0 2.7773 0.59375 3.7305 1.5508l0.089844 0.097657c0.90234 0.94922 1.4609 2.2305 1.4609 3.6328v1.5508zm17.785 3c-0.82813 0-1.5-0.67188-1.5-1.5s0.67187-1.5 1.5-1.5h0.12891c0.82812 0 1.5 0.67188 1.5 1.5s-0.67188 1.5-1.5 1.5zm-3 58.555h36.52c1.8789 0 3.5898 0.76953 4.8281 2.0039l0.085937 0.09375c1.1875 1.2305 1.918 2.9062 1.918 4.7344 0 1.8789-0.76953 3.5898-2.0078 4.8242-1.2383 1.2383-2.9492 2.0078-4.8242 2.0078h-8.5312c-0.82812 0-1.5-0.67188-1.5-1.5s0.67188-1.5 1.5-1.5h8.5312c1.0469 0 2.0078-0.43359 2.7031-1.1289 0.69531-0.69531 1.1289-1.6523 1.1289-2.7031 0-1.0234-0.40625-1.957-1.0586-2.6445l-0.066406-0.0625c-0.69531-0.69531-1.6523-1.125-2.707-1.125h-36.52v7.668h21.879c0.82812 0 1.5 0.67188 1.5 1.5s-0.67188 1.5-1.5 1.5h-21.879v1.5547c0 1.4453-0.59766 2.7656-1.5586 3.7227-0.95312 0.96094-2.2734 1.5586-3.7227 1.5586h-4.3867c-1.4453 0-2.7656-0.59766-3.7227-1.5508-0.96094-0.96094-1.5547-2.2812-1.5547-3.7305v-1.5547h-27.871c-1.875 0-3.5859-0.76953-4.8242-2.0078-1.2344-1.2344-2.0078-2.9453-2.0078-4.8242 0-1.875 0.76953-3.5859 2.0039-4.8242 1.2383-1.2422 2.9453-2.0117 4.8281-2.0117h27.871v-1.5508c0-1.4492 0.59375-2.7695 1.5469-3.7266 0.96094-0.96094 2.2812-1.5547 3.7305-1.5547h4.3867c1.4453 0 2.7656 0.59766 3.7227 1.5547 0.96094 0.95312 1.5547 2.2773 1.5547 3.7266v1.5508zm-42.816 10.668h27.871v-7.668h-27.871c-1.0508 0-2.0117 0.43359-2.707 1.125-0.69531 0.69141-1.125 1.6523-1.125 2.707 0 1.0469 0.43359 2.0078 1.1289 2.7031 0.69531 0.69531 1.6562 1.1289 2.7031 1.1289zm75.809-41.445h3.5273c1.8789 0 3.5898 0.76953 4.8281 2.0039l0.085937 0.09375c1.1875 1.2305 1.918 2.9062 1.918 4.7344 0 1.8789-0.76953 3.5898-2.0039 4.8281l-0.09375 0.085937c-1.2305 1.1875-2.9023 1.918-4.7344 1.918h-3.5273v1.5547c0 1.4531-0.59375 2.7773-1.5508 3.7305-0.95312 0.95312-2.2773 1.5508-3.7305 1.5508h-4.3867c-1.4531 0-2.7773-0.59375-3.7305-1.5508-0.95313-0.95313-1.5508-2.2773-1.5508-3.7305v-12.219h-60.859c-1.0508 0-2.0117 0.43359-2.707 1.125-0.69531 0.69141-1.125 1.6523-1.125 2.707s0.42969 2.0156 1.1211 2.7031c0.69531 0.69531 1.6562 1.1289 2.7109 1.1289h14.746c0.82812 0 1.5 0.67188 1.5 1.5s-0.67188 1.5-1.5 1.5h-14.746c-1.8711 0-3.5781-0.76953-4.8203-2.0078l-0.007813-0.007813c-1.2344-1.2383-2.0039-2.9453-2.0039-4.8164 0-1.875 0.76953-3.5859 2.0039-4.8242 1.2383-1.2422 2.9453-2.0117 4.8281-2.0117h60.859v-1.5508c0-1.4492 0.59375-2.7695 1.5469-3.7266 0.96094-0.96094 2.2812-1.5547 3.7305-1.5547h4.3867c1.4531 0 2.7773 0.59375 3.7305 1.5508 0.95312 0.95313 1.5508 2.2773 1.5508 3.7305v1.5508zm3.5273 3h-3.5273v7.668h3.5273c1.0234 0 1.9531-0.40625 2.6445-1.0586l0.0625-0.066406c0.69531-0.69531 1.125-1.6523 1.125-2.707 0-1.0234-0.40625-1.9531-1.0586-2.6445l-0.066406-0.0625c-0.69531-0.69531-1.6523-1.125-2.707-1.125zm-23.113 7.668c0.82812 0 1.5 0.67187 1.5 1.5 0 0.82812-0.67188 1.5-1.5 1.5h-35.371c-0.82812 0-1.5-0.67188-1.5-1.5 0-0.82813 0.67188-1.5 1.5-1.5zm-56.223-30.777h13.086v-7.668h-13.086c-1.0508 0-2.0117 0.43359-2.707 1.125s-1.125 1.6523-1.125 2.707c0 1.0547 0.42969 2.0156 1.1211 2.7031 0.69531 0.69531 1.6562 1.1289 2.7109 1.1289zm22.75-14.5h-4.3867c-0.62891 0-1.1992 0.25781-1.6094 0.66797-0.41016 0.41016-0.66797 0.98438-0.66797 1.6133v16.773c0 0.62891 0.25781 1.2031 0.66797 1.6133 0.41016 0.41016 0.98437 0.66797 1.6094 0.66797h4.3867c0.625 0 1.1953-0.25781 1.6094-0.67188 0.41406-0.41406 0.67188-0.98438 0.67188-1.6094v-16.773c0-0.59766-0.23047-1.1445-0.60547-1.5469l-0.066406-0.058594c-0.41406-0.41406-0.98438-0.67188-1.6094-0.67188zm14.789 61.555h-4.3867c-0.62891 0-1.1992 0.25781-1.6094 0.66797s-0.66797 0.98438-0.66797 1.6133v16.773c0 0.62891 0.25781 1.1992 0.66797 1.6094 0.41406 0.41406 0.98438 0.66797 1.6094 0.66797h4.3867c0.62109 0 1.1914-0.26172 1.6055-0.67578 0.41797-0.41016 0.67578-0.98047 0.67578-1.6055v-16.773c0-0.62109-0.25781-1.1914-0.67188-1.6094-0.41016-0.41406-0.98047-0.67188-1.6055-0.67188zm32.988-30.777h-4.3867c-0.62891 0-1.2031 0.25781-1.6133 0.66797s-0.66797 0.98438-0.66797 1.6133v16.773c0 0.625 0.25781 1.1953 0.67188 1.6094 0.41406 0.41406 0.98438 0.67188 1.6094 0.67188h4.3867c0.625 0 1.1953-0.25781 1.6094-0.67188s0.67188-0.98438 0.67188-1.6094v-16.773c0-0.625-0.25781-1.1953-0.67188-1.6094-0.41406-0.41406-0.98438-0.67187-1.6094-0.67187z"/>
</svg>