<svg xmlns="http://www.w3.org/2000/svg" version="1.1" viewBox="0 0 100 100">
 <path d="m97.223 68.062c0-8.5352-3.4609-16.262-9.0547-21.859-5.5938-5.5938-13.324-9.0547-21.859-9.0547s-16.266 3.4609-21.859 9.0547-9.0547 13.324-9.0547 21.859c0 8.5391 3.4609 16.266 9.0547 21.859s13.324 9.0547 21.859 9.0547 16.262-3.4609 21.859-9.0547c5.5938-5.5938 9.0547-13.324 9.0547-21.859zm-46.68-54.832c4.5078 4.0664 7.543 9.7305 8.1953 16.098 0.16016 1.5703 1.5664 2.7188 3.1367 2.5547 1.5703-0.16016 2.7148-1.5664 2.5547-3.1367-0.80469-7.8281-4.5273-14.789-10.055-19.773-5.4766-4.9375-12.73-7.9453-20.684-7.9453-8.5352 0-16.262 3.4609-21.859 9.0547-5.5938 5.5938-9.0547 13.324-9.0547 21.859 0 7.375 2.5938 14.152 6.918 19.48 4.4023 5.4141 10.598 9.3125 17.684 10.781 1.5469 0.32031 3.0625-0.67188 3.3828-2.2188 0.32031-1.5469-0.67188-3.0625-2.2188-3.3867-5.7734-1.1953-10.824-4.375-14.41-8.7852-3.5117-4.3242-5.6172-9.8438-5.6172-15.867 0-6.9492 2.8164-13.246 7.375-17.801 4.5586-4.5586 10.848-7.3711 17.801-7.3711 6.4844 0 12.395 2.4492 16.852 6.4648zm-2.6797 20.562c1.1172-1.1172 1.1172-2.9375 0-4.0547l-12.145-12.145c-1.1211-1.1211-2.9375-1.1211-4.0586 0l-12.145 12.145c-1.1172 1.1172-1.1172 2.9375 0 4.0547 1.1211 1.1211 2.9375 1.1211 4.0586 0l7.2461-7.2461v17.715c0 1.5859 1.2852 2.8672 2.8672 2.8672 1.5859 0 2.8711-1.2852 2.8711-2.8672v-17.715l7.2461 7.2461c1.1211 1.1211 2.9375 1.1211 4.0586 0zm15.574 21.953c0-1.5859 1.2852-2.8672 2.8711-2.8672 1.5859 0 2.8672 1.2852 2.8672 2.8672v17.715l7.2461-7.2461c1.1211-1.1211 2.9375-1.1211 4.0586 0 1.1172 1.1172 1.1172 2.9375 0 4.0547l-12.145 12.145c-1.1211 1.1211-2.9375 1.1211-4.0586 0l-12.145-12.145c-1.1172-1.1172-1.1172-2.9375 0-4.0547 1.1211-1.1211 2.9375-1.1211 4.0586 0l7.2461 7.2461z" fill="DodgerBlue" fill-rule="evenodd"/>
</svg>