<svg height="40" viewBox="0 0 120 120" version="1.1" xmlns="http://www.w3.org/2000/svg">
    <path
            fill="black"
            opacity="50%"
            d="M 59,114 C 53.854328,106.93859 25.356911,64.031582 24.174712,61.472867 18.301889,48.761911 19.404913,33.931506 27.121956,21.846512 29.137321,18.690424 34.351134,13.284844 37.642264,10.939263 49.960332,2.1602072 66.197379,0.85624719 79.70066,7.5616672 100.21646,17.749344 108.60522,43.329402 97.972493,63.278438 95.76121,67.427233 62.405281,116.49149 61.700748,116.63166 c -0.389324,0.0775 -1.313137,-0.7716 -2.288077,-2.10292 z M 70.447813,72.386116 c 7.84294,-2.487876 13.694954,-7.572299 17.479427,-15.186698 3.929058,-7.905309 3.929058,-17.750314 0,-25.655621 -1.927603,-3.878354 -4.603636,-7.416483 -7.248747,-9.583952 -9.376583,-7.683406 -21.540031,-9.122855 -32.311338,-3.823796 -3.315116,1.630906 -4.611498,2.58181 -7.612456,5.58378 -5.889944,5.891929 -8.545687,12.326615 -8.523463,20.651778 0.02239,8.388181 2.631389,14.705193 8.523204,20.636735 3.045313,3.065846 4.248842,3.948433 7.612715,5.58265 5.209514,2.530856 8.644318,3.260312 14.299855,3.036894 3.180721,-0.125654 5.357398,-0.473039 7.780803,-1.24177 z"
    />
    <path
            fill="CornflowerBlue"
            d="M 58.472639,106.3026 C 55.347228,101.92498 33.980894,69.764654 30.600187,64.349346 c -5.43391,-8.704187 -6.428908,-12.33619 -6.099622,-22.265231 0.1657,-4.996411 0.367538,-6.39589 1.301005,-9.020732 C 30.553144,19.702288 41.095112,10.286258 54.410668,7.5098852 57.798704,6.8034591 64.818727,6.7226358 68.134601,7.3518778 82.75182,10.125737 94.248874,21.138071 97.857451,35.821596 c 0.475688,1.935597 0.712965,4.723548 0.727681,8.550012 0.03641,9.469473 -1.20647,12.580309 -11.090462,27.758541 -3.088024,4.742084 -8.643396,13.069646 -12.345271,18.505694 -5.720282,8.399993 -8.292923,12.078797 -12.858546,18.387337 -0.371417,0.5132 -0.791287,0.93904 -0.933045,0.94631 -0.141759,0.007 -1.440084,-1.64283 -2.885169,-3.66689 z"
    />
    <path
            fill="HoneyDew"
            d="m 57,59 c -1,-1 -2,-2 -2,-2 0,-0.5 -3,-17 -3,-17 0,-0.5 -2.3372,-2.379063 -5.149116,-4.393943 -5.441943,-3.899425 -5.573278,-4.025542 -5.5826,-5.360785 -0.01696,-2.430035 4.708996,-3.03838 8.3536,-1.075309 1.181034,0.636133 6.22294,4.634528 11.204235,8.885321 4.981295,4.250793 9.533116,8.103307 10.115157,8.561141 0.977714,0.76907 1.265059,0.793405 3.77541,0.319735 2.375747,-0.448271 2.849153,-0.426198 3.767725,0.175672 0.577815,0.3786 1.050573,0.959442 1.050573,1.29076 0,0.331319 -1.288532,1.367902 -2.863406,2.303516 -4.805668,2.854995 -5.45986,2.662693 -15.066989,-4.428997 l -2.999664,-2.214261 -0.255233,1.543539 c -0.140378,0.848946 -0.257315,4.240533 -0.259861,7.53686 -0.0025,3.296326 -0.151712,5.993321 -0.331481,5.993321 -0.179769,0 -0.93682,-0.557119 -1.682336,-1.238043 z"
            style="scale:1.05"
    />
    <path
            fill="HoneyDew"
            d="m 64.495182,37.473324 c -1.121155,-1.018201 -1.943833,-1.93889 -1.828172,-2.045975 0.343271,-0.31782 13.326197,1.273245 14.19837,1.740018 0.440848,0.235935 1.022982,0.695792 1.293631,1.021904 0.412287,0.496776 0.03155,0.636426 -2.347803,0.86114 -1.56194,0.147515 -4.288367,0.269555 -6.058727,0.271199 -3.216687,0.003 -3.220195,0.0018 -5.257299,-1.848286 z"
            style="scale:1.05"
    />
</svg>
