<svg height="40" viewBox="0 0 120 120" xmlns="http://www.w3.org/2000/svg">
    <path fill="Chartreuse" d="m 59.309714,109.52873 c -1.97449,-2.48983 -25.44594,-37.720833 -30.09922,-45.179384 -5.0955,-8.167383 -6.32942,-12.702586 -5.9504,-21.870366 0.26363,-6.376606 0.91592,-9.081973 3.46406,-14.367078 5.36803,-11.133871 15.19288,-18.9663238 26.77742,-21.3471805 4.05222,-0.832811 11.55379,-0.8615257 15.34155,-0.058725 13.67919,2.8992453 24.72148,13.0952182 29.17694,26.9407202 0.75686,2.351967 0.98367,4.212917 1.12776,9.252847 0.33273,11.638508 -0.85615,14.478889 -14.75773,35.258096 -9.41579,14.074131 -20.47052,30.15575 -22.2877,32.42253 l -0.98473,1.22835 z m 8.73747,-36.374926 c 6.38918,-1.298183 12.69097,-5.24268 16.71286,-10.46113 4.10985,-5.332584 6.1657,-11.441423 6.1657,-18.321066 0,-4.808443 -0.87766,-8.832233 -2.79544,-12.81619 -3.70286,-7.692274 -9.3938,-12.651398 -17.7188,-15.440286 -2.48826,-0.833572 -3.75728,-0.974109 -8.79595,-0.974109 -5.03595,0 -6.30833,0.140758 -8.79102,0.972514 -6.13348,2.054851 -9.87802,4.604346 -14.26081,9.709563 -8.06778,9.397611 -8.75116,24.594074 -1.58122,35.161574 0.47085,0.693964 2.32602,2.743494 4.1226,4.554508 2.61852,2.639572 4.01739,3.659236 7.05176,5.140184 2.08189,1.01608 4.92083,2.120937 6.30876,2.45523 3.39056,0.816648 9.61353,0.825446 13.58156,0.01921 z"/>
    <g transform="matrix(0.08124508,0,0,0.08124508,41.382902,20.992593)">
      <path fill="HoneyDew" d="m 480,341.334 h -53.333 v -32 c 0,-5.888 -4.779,-10.667 -10.667,-10.667 H 288 c -5.888,0 -10.667,4.779 -10.667,10.667 v 32 H 170.667 v -160 c 0,-5.888 -4.779,-10.667 -10.667,-10.667 h -6.528 l 16.64,-49.963 c 0.363,-1.088 0.555,-2.219 0.555,-3.371 V 74.667 C 170.667,68.779 165.888,64 160,64 H 106.667 V 10.667 C 106.667,4.779 101.888,0 96,0 90.112,0 85.333,4.779 85.333,10.667 V 64 H 32 c -5.888,0 -10.667,4.779 -10.667,10.667 v 42.667 c 0,1.152 0.192,2.283 0.555,3.371 l 16.64,49.963 H 32 c -5.888,0 -10.667,4.779 -10.667,10.667 v 160 H 10.667 C 4.779,341.334 0,346.112 0,352 V 501.333 C 0,507.222 4.779,512 10.667,512 h 352 V 394.667 c 0,-5.888 4.779,-10.667 10.667,-10.667 h 64 c 5.888,0 10.667,4.779 10.667,10.667 V 512 h 32 c 5.888,0 10.667,-4.779 10.667,-10.667 V 352 c -0.001,-5.888 -4.78,-10.666 -10.668,-10.666 z m -373.333,96 c 0,5.888 -4.779,10.667 -10.667,10.667 H 53.333 c -5.888,0 -10.667,-4.779 -10.667,-10.667 V 394.667 C 42.666,388.779 47.445,384 53.333,384 H 96 c 5.888,0 10.667,4.779 10.667,10.667 z M 128,266.667 c 0,5.888 -4.779,10.667 -10.667,10.667 H 74.667 C 68.779,277.334 64,272.555 64,266.667 V 224 c 0,-5.888 4.779,-10.667 10.667,-10.667 h 42.667 c 5.888,0 10.667,4.779 10.667,10.667 v 42.667 z M 117.333,128 H 74.667 C 68.779,128 64,123.222 64,117.334 c 0,-5.888 4.779,-10.667 10.667,-10.667 h 42.667 c 5.888,0 10.667,4.779 10.667,10.667 0,5.888 -4.78,10.666 -10.668,10.666 z m 96,309.334 c 0,5.888 -4.779,10.667 -10.667,10.667 H 160 c -5.888,0 -10.667,-4.779 -10.667,-10.667 V 394.667 C 149.333,388.779 154.112,384 160,384 h 42.667 c 5.888,0 10.667,4.779 10.667,10.667 v 42.667 z m 106.667,0 c 0,5.888 -4.779,10.667 -10.667,10.667 h -42.667 c -5.888,0 -10.667,-4.779 -10.667,-10.667 v -42.667 c 0,-5.888 4.779,-10.667 10.667,-10.667 h 42.667 c 5.888,0 10.667,4.779 10.667,10.667 z"/>
      <path fill="HoneyDew" d="M 503.957,95.04 C 486.464,83.072 467.882,81.6 449.664,90.453 l -60.459,28.416 -1.792,1.067 -37.419,-19.563 C 334.357,89.962 316.479,84.437 297.983,84.437 h -0.021 l -31.573,0.896 c -4.544,0.128 -8.491,3.115 -9.856,7.445 -1.365,4.331 0.128,9.045 3.776,11.755 l 66.411,49.792 -52.267,27.157 c -6.464,-0.619 -25.152,-5.184 -34.453,-7.467 -12.032,-2.923 -13.888,-3.349 -16,-3.349 h -21.333 c -4.501,0 -8.533,2.837 -10.048,7.083 -1.515,4.245 -0.192,8.981 3.307,11.84 9.536,7.787 58.475,46.635 85.44,46.635 4.587,0 8.64,-1.024 11.477,-2.709 L 504.192,126.059 c 4.928,-3.456 7.851,-9.259 7.808,-15.531 -0.021,-6.25 -3.029,-12.032 -8.043,-15.488 z"/>
    </g>
</svg>