<svg height="40" viewBox="0 0 120 120" xmlns="http://www.w3.org/2000/svg">
  <path fill="#000000" d="M 59.412671,114.52874 C 53.854328,106.93859 25.356911,64.031582 24.174712,61.472867 18.301889,48.761911 19.404913,33.931506 27.121956,21.846512 29.137321,18.690424 34.351134,13.284844 37.642264,10.939263 49.960332,2.1602072 66.197379,0.85624719 79.70066,7.5616672 100.21646,17.749344 108.60522,43.329402 97.972493,63.278438 95.76121,67.427233 62.405281,116.49149 61.700748,116.63166 c -0.389324,0.0775 -1.313137,-0.7716 -2.288077,-2.10292 z M 70.447813,72.386116 c 7.84294,-2.487876 13.694954,-7.572299 17.479427,-15.186698 3.929058,-7.905309 3.929058,-17.750314 0,-25.655621 -1.927603,-3.878354 -4.603636,-7.416483 -7.248747,-9.583952 -9.376583,-7.683406 -21.540031,-9.122855 -32.311338,-3.823796 -3.315116,1.630906 -4.611498,2.58181 -7.612456,5.58378 -5.889944,5.891929 -8.545687,12.326615 -8.523463,20.651778 0.02239,8.388181 2.631389,14.705193 8.523204,20.636735 3.045313,3.065846 4.248842,3.948433 7.612715,5.58265 5.209514,2.530856 8.644318,3.260312 14.299855,3.036894 3.180721,-0.125654 5.357398,-0.473039 7.780803,-1.24177 z"/>
  <g fill="#639ddb" transform="translate(-98.83723,3.3646717)">
    <path d="m 158.74122,106.51289 c -1.69177,-2.00137 -29.93421,-44.588392 -32.07422,-48.365013 -1.00177,-1.767891 -2.32661,-4.597151 -2.94409,-6.287242 -1.07249,-2.935517 -1.1219,-3.430149 -1.10505,-11.063991 0.0197,-8.930231 0.26957,-10.097989 3.54406,-16.563151 5.20388,-10.274539 14.3616,-17.7069578 24.94301,-20.2437845 4.88478,-1.1710961 13.60701,-1.1637188 18.21798,0.015409 11.95666,3.057584 22.16375,12.5201315 26.72342,24.7741165 1.27097,3.415703 1.35164,3.98365 1.53077,10.776678 0.14953,5.670452 0.0477,7.738586 -0.4867,9.883724 -1.43541,5.761916 -5.05353,11.871268 -21.03491,35.518323 -7.33531,10.853796 -15.76811,22.921831 -16.01713,22.921831 -0.0779,0 -0.66164,-0.61511 -1.29714,-1.3669 z m 7.90628,-36.500176 c 7.45803,-1.378691 15.16916,-6.828643 19.17524,-13.552363 4.24765,-7.129192 5.27378,-17.13882 2.58306,-25.197327 -2.36493,-7.082824 -7.8565,-13.482104 -14.28404,-16.645072 -5.00174,-2.461334 -7.64676,-3.051893 -13.66898,-3.051893 -6.03006,0 -8.7053,0.590827 -13.66898,3.018795 -2.91292,1.424846 -4.27963,2.456082 -7.38009,5.568557 -3.09786,3.10986 -4.12722,4.484367 -5.53794,7.394838 -2.14093,4.416993 -3.06416,8.472064 -3.06416,13.458687 0,4.924571 0.91778,9.004286 3.01267,13.391982 1.36725,2.863659 2.38419,4.224 5.53478,7.403741 3.19975,3.229353 4.4711,4.19085 7.43474,5.622741 1.96623,0.94999 4.61591,2.00621 5.88818,2.347153 2.7335,0.732531 10.58242,0.867412 13.97552,0.240161 z"/>
    <path d="m 140.75543,58.811656 c -0.15421,-0.154213 -0.28039,-3.182418 -0.28039,-6.729343 0,-6.168564 0.0366,-6.448954 0.84117,-6.448954 0.80718,0 0.84117,-0.280389 0.84117,-6.939635 0,-5.888176 0.0956,-6.939635 0.63087,-6.939635 0.78852,0 0.78629,-0.235218 -0.0248,-2.615654 -0.36062,-1.058382 -0.5972,-2.842778 -0.52573,-3.965324 l 0.12996,-2.040994 2.41836,-0.126134 2.41836,-0.126135 v -2.267402 c 0,-2.275452 0.61666,-3.348319 1.30233,-2.265781 0.20192,0.318787 0.37002,1.469166 0.37356,2.556398 l 0.006,1.976785 2.41836,0.126135 2.41836,0.126134 0.13828,1.682336 c 0.0761,0.925285 -0.19644,2.790284 -0.60556,4.144443 -0.69685,2.306535 -0.69895,2.487237 -0.0331,2.85984 0.62089,0.347471 0.71071,1.245499 0.71071,7.106179 v 6.708444 h 4.39074 4.39074 l 0.13054,-1.57719 0.13053,-1.577189 5.78303,-0.117015 5.78303,-0.117015 v 1.674135 1.674136 l 2.62865,0.125215 2.62865,0.125215 v 6.519052 6.519051 l -1.56404,0.129751 -1.56405,0.129751 -0.11829,-5.176759 -0.11829,-5.176758 h -3.36467 -3.36467 l -0.11809,5.152153 -0.11809,5.152154 h -14.21678 c -7.81924,0 -14.34298,-0.126175 -14.4972,-0.28039 z m 8.04621,-7.395267 -0.12521,-2.62865 h -2.5235 -2.52351 l -0.1303,2.04948 c -0.19386,3.049108 -0.0518,3.207819 2.87097,3.207819 h 2.55677 z m 8.83227,0 -0.12522,-2.62865 h -2.5235 -2.5235 l -0.12522,2.62865 -0.12522,2.628649 h 2.77394 2.77393 z m 8.84146,0.776113 c 0.0739,-0.903234 0.023,-2.086127 -0.11316,-2.62865 -0.22457,-0.894767 -0.47708,-0.986405 -2.71806,-0.986405 -1.86479,0 -2.53309,0.163111 -2.72579,0.665274 -0.35229,0.918057 -0.32152,4.175309 0.0429,4.539716 0.164,0.163998 1.44152,0.242857 2.83894,0.175244 l 2.54077,-0.122935 z M 150.90412,37.815198 c 0.15843,-2.717466 -0.37975,-3.20502 -3.35015,-3.035039 l -2.24221,0.128309 -0.1303,2.049481 c -0.19869,3.125108 -0.064,3.266978 2.9638,3.122883 l 2.63409,-0.125356 z m -0.35035,-10.038233 c 0.85511,-1.030343 0.0808,-1.490468 -2.50822,-1.490468 -2.589,0 -3.36332,0.460125 -2.50821,1.490468 0.68197,0.821724 4.33446,0.821724 5.01643,0 z"/>
    <path d="m 160.81248,35.77759 c -2.16033,-1.00386 -4.77583,-2.997486 -4.77583,-3.640305 0,-0.513785 2.0116,-0.4841 4.58433,0.06765 1.95153,0.418528 2.24699,0.367935 4.1214,-0.705725 1.11054,-0.636115 2.10237,-1.221876 2.20408,-1.301689 0.1017,-0.07981 -0.19949,-0.414367 -0.66933,-0.743451 -3.44044,-2.409781 -5.25631,-4.131131 -4.71783,-4.472256 1.25962,-0.797957 3.98577,-0.367325 7.08883,1.119775 l 3.12461,1.497428 3.2844,-1.541274 c 3.43096,-1.610052 4.66371,-1.682588 5.99362,-0.352674 0.37348,0.373485 0.61116,0.893673 0.52817,1.155975 -0.14502,0.458354 -15.32733,8.607753 -17.61207,9.453618 -0.87603,0.324327 -1.54618,0.210225 -3.15438,-0.537072 z"/>
  </g>
</svg>