<svg height="44" viewBox="0 0 120 120" xmlns="http://www.w3.org/2000/svg">
  <path fill="#000000" d="M 59.412671,114.52874 C 53.854328,106.93859 25.356911,64.031582 24.174712,61.472867 18.301889,48.761911 19.404913,33.931506 27.121956,21.846512 29.137321,18.690424 34.351134,13.284844 37.642264,10.939263 49.960332,2.1602072 66.197379,0.85624719 79.70066,7.5616672 100.21646,17.749344 108.60522,43.329402 97.972493,63.278438 95.76121,67.427233 62.405281,116.49149 61.700748,116.63166 c -0.389324,0.0775 -1.313137,-0.7716 -2.288077,-2.10292 z M 70.447813,72.386116 c 7.84294,-2.487876 13.694954,-7.572299 17.479427,-15.186698 3.929058,-7.905309 3.929058,-17.750314 0,-25.655621 -1.927603,-3.878354 -4.603636,-7.416483 -7.248747,-9.583952 -9.376583,-7.683406 -21.540031,-9.122855 -32.311338,-3.823796 -3.315116,1.630906 -4.611498,2.58181 -7.612456,5.58378 -5.889944,5.891929 -8.545687,12.326615 -8.523463,20.651778 0.02239,8.388181 2.631389,14.705193 8.523204,20.636735 3.045313,3.065846 4.248842,3.948433 7.612715,5.58265 5.209514,2.530856 8.644318,3.260312 14.299855,3.036894 3.180721,-0.125654 5.357398,-0.473039 7.780803,-1.24177 z"/>
  <g fill="#9356e2">
    <path d="M 59.429932,107.83497 C 57.068412,104.62806 46.511692,88.752481 37.365462,74.653653 23.972452,54.008431 24.393872,55.009812 24.393872,43.830336 c 0,-8.597204 0.29372,-10.173353 2.83819,-15.229927 4.19439,-8.335456 11.54306,-15.725779 18.85074,-18.9575799 5.91239,-2.6147393 14.98268,-3.7632441 21.50329,-2.7228046 11.00143,1.7554061 21.40616,9.7673415 27.16525,20.9179905 2.86776,5.552522 3.26336,7.48674 3.27268,16.001427 0.005,4.125865 -0.19836,8.014741 -0.47092,9.026931 -0.57029,2.117922 -2.91478,6.859779 -5.92092,11.975388 -3.54561,6.033622 -25.73637,39.036699 -29.75636,44.254959 l -0.77548,1.00664 z m 13.92464,-36.242025 c 4.29538,-2.050864 7.97326,-4.692682 10.72565,-7.70424 2.78229,-3.044275 4.37275,-5.800967 5.80057,-10.053958 1.02682,-3.058546 1.13154,-3.957792 1.15101,-9.883723 0.0201,-6.105058 -0.0539,-6.732469 -1.16455,-9.879687 -1.51252,-4.285948 -3.53634,-7.606172 -6.69357,-10.981256 -3.24639,-3.4704 -6.54623,-5.643138 -11.04011,-7.269214 -3.47933,-1.258968 -3.88304,-1.310523 -10.22457,-1.305729 -7.47564,0.0057 -9.55306,0.40693 -14.33517,2.769 -2.30603,1.139036 -4.01685,2.444746 -6.63915,5.067053 -4.13043,4.13043 -6.43561,7.512455 -7.78774,11.42572 -0.87173,2.522931 -0.97227,3.574954 -0.97227,10.174113 0,6.59916 0.10054,7.651179 0.97227,10.174111 1.35113,3.910371 3.66095,7.301106 7.74668,11.371871 3.66684,3.653406 6.0274,5.165309 10.72832,6.871311 2.68772,0.975397 3.27042,1.026002 10.62448,0.922644 l 7.78081,-0.109352 z"/>
    <path d="M 48.987535,57.035776 C 42.202451,56.210641 36.6221,55.52667 36.586761,55.515835 c -0.136784,-0.04192 -0.0561,-17.753455 0.08089,-17.753455 0.348554,0 13.454937,-1.295541 14.440227,-1.427393 l 1.092294,-0.146164 v -4.478907 -4.478908 l 1.028047,-0.164386 1.028046,-0.164394 v -2.487301 -2.487302 l 3.695624,-0.854982 3.695629,-0.854982 3.492005,0.857505 3.492005,0.857513 0.07292,2.453368 0.07293,2.453374 0.835286,0.08054 0.835287,0.08053 v 4.481407 c 0,2.464778 0.03727,4.481413 0.08282,4.481413 0.04554,0 3.420106,0.34696 7.498987,0.771031 4.078887,0.424066 7.511258,0.771033 7.627494,0.771033 0.116261,0 0.211341,4.105749 0.211341,9.123887 0,8.031604 -0.04722,9.123887 -0.394547,9.123887 -0.504656,0 -13.594759,1.498445 -14.704843,1.683284 l -0.835286,0.139089 V 53.5802 49.58489 l -1.349311,0.0019 c -0.742115,6.11e-4 -2.303458,0.07583 -3.469646,0.166605 l -2.120341,0.165053 v 4.202588 c 0,3.188861 -0.07749,4.203433 -0.321263,4.206097 -0.176694,0.0019 -0.552576,0.04981 -0.835288,0.106385 -0.282709,0.05659 -6.065456,-0.572241 -12.850547,-1.397371 z m 11.179981,-6.256627 v -0.861826 l -1.966362,-0.166221 c -1.081499,-0.09141 -2.700668,-0.166213 -3.598155,-0.166213 H 52.97121 v 0.771031 c 0,0.428045 0.142907,0.785576 0.321263,0.803731 0.176694,0.01796 1.593468,0.113931 3.148381,0.213218 1.554915,0.09928 3.029515,0.200228 3.276887,0.224311 0.347644,0.03385 0.449775,-0.151904 0.449775,-0.818031 z M 50.401099,50.39308 c 0,-0.718485 -0.03636,-0.7373 -1.734828,-0.897708 -0.954148,-0.09011 -2.284185,-0.164662 -2.955623,-0.165671 -1.180712,-0.0019 -1.220799,0.02305 -1.220799,0.755773 0,0.73061 0.0481,0.760968 1.349305,0.852 0.74212,0.05195 2.072151,0.115793 2.955627,0.141936 l 1.606318,0.04754 z m 26.381322,0.476863 c 1.357388,0 1.375856,-0.01035 1.375856,-0.771037 v -0.771032 h -2.955623 -2.95563 v 0.936152 0.936152 l 1.579768,-0.16512 c 0.868872,-0.09082 2.198903,-0.165115 2.955629,-0.165115 z M 43.204795,50.132534 c 0,-0.652452 -0.111034,-0.755755 -0.963792,-0.896707 -0.530088,-0.08762 -1.686638,-0.16058 -2.570109,-0.162133 l -1.606319,-0.003 v 0.761382 0.761396 l 2.377351,0.08481 c 1.307541,0.04663 2.464092,0.108814 2.570109,0.138153 0.106016,0.02933 0.19276,-0.278494 0.19276,-0.684068 z m 40.800482,0.318403 c 0.394588,-0.105744 0.578276,-0.349545 0.578276,-0.767523 0,-0.604555 -0.03354,-0.612548 -2.570106,-0.612548 h -2.570111 v 0.771031 0.771032 l 1.991833,-0.0037 c 1.095509,-0.0019 2.252059,-0.07324 2.570108,-0.158484 z M 60.167516,47.657306 V 46.757765 H 56.569359 52.97121 v 0.761725 0.76173 l 2.505854,0.08402 c 1.37822,0.04619 2.99739,0.108222 3.59815,0.137816 1.087247,0.05354 1.092302,0.04962 1.092302,-0.845749 z m 8.573993,0.736096 c 1.102952,-0.151174 1.192422,-0.218669 1.192422,-0.899535 v -0.736102 h -3.469652 -3.469647 v 0.899541 0.899537 h 2.277231 c 1.252472,0 2.813809,-0.07356 3.469646,-0.163441 z m -18.34041,-0.864607 v -0.77103 h -2.955628 -2.955622 v 0.77103 0.771039 h 2.955622 2.955628 z m 27.709214,-0.192751 0.08053,-0.835288 -1.622603,0.0025 c -0.89243,0.0013 -2.229794,0.07517 -2.971908,0.164307 -1.279513,0.153687 -1.349311,0.200538 -1.349311,0.90572 v 0.74365 l 2.891374,-0.07267 2.891373,-0.07267 z m -34.905518,0.06425 c 0,-0.574196 -0.105325,-0.642528 -0.990344,-0.642528 -0.544693,0 -1.701238,-0.07431 -2.570109,-0.16512 l -1.579767,-0.165114 v 0.80764 0.807649 h 2.570109 2.570111 z m 41.378758,-0.128508 v -0.771032 h -2.570106 -2.570111 v 0.771032 0.771032 h 2.570111 2.570106 z M 41.625028,45.307593 c 1.441595,-0.150681 1.579767,-0.218113 1.579767,-0.771039 0,-0.596146 -0.04143,-0.605911 -2.570111,-0.605911 h -2.570109 v 0.771032 c 0,0.723306 0.0613,0.771031 0.990342,0.771031 0.544688,0 1.701238,-0.07431 2.570111,-0.165113 z m 42.958525,-0.588851 v -0.753964 l -2.570669,-0.08132 -2.570672,-0.08132 5.63e-4,0.835281 5.61e-4,0.835287 h 2.570111 2.570106 z M 50.401099,44.436246 v -0.779447 l -2.891372,0.07267 -2.891373,0.07267 -0.08132,0.706776 -0.08133,0.706782 H 47.4284 50.401102 Z M 60.167516,44.31615 V 43.416615 H 56.569359 52.97121 v 0.899535 0.899543 h 3.598149 3.598157 z m 9.766415,0.167271 v -0.73227 l -2.505862,-0.165938 c -1.37822,-0.09127 -2.939563,-0.16654 -3.469645,-0.167266 -0.930389,-0.0013 -0.963792,0.02982 -0.963792,0.898203 v 0.899543 h 3.469647 3.469652 z m 8.224346,-0.03873 v -0.771043 h -2.955623 -2.95563 v 0.771038 0.771033 h 2.95563 2.955623 z M 42.401632,42.741987 c 0.654553,-0.130912 0.80326,-0.285462 0.803719,-0.835287 l 5.62e-4,-0.674652 -2.570672,0.08132 -2.570666,0.08132 v 0.753965 0.753964 h 1.766948 c 0.97182,0 2.12837,-0.07228 2.570109,-0.16063 z m 42.181921,-0.610422 c 0,-0.760809 -0.01824,-0.771032 -1.377692,-0.771032 -0.757722,0 -1.914272,-0.07356 -2.570109,-0.163439 l -1.192416,-0.16344 v 0.789681 c 0,0.895204 0.221212,0.962637 3.405391,1.03813 l 1.734826,0.04113 z m -34.760732,0.352031 c 0.438139,-0.117419 0.578278,-0.343428 0.578278,-0.932644 v -0.777667 l -1.579767,0.165119 c -0.868871,0.09082 -2.198907,0.165114 -2.955628,0.165114 -1.357388,0 -1.375855,0.01036 -1.375855,0.771039 v 0.771031 l 2.37735,-0.0037 c 1.307543,-0.0019 2.637572,-0.07324 2.955622,-0.158483 z m 28.335456,-0.571874 c 0,-0.718491 -0.03636,-0.737305 -1.734823,-0.897715 -0.954155,-0.09011 -2.284186,-0.164661 -2.955624,-0.165669 -1.179954,-0.0019 -1.220806,0.02346 -1.220806,0.753688 0,0.859975 0.237077,0.920484 3.919421,1.000359 l 1.991832,0.0432 z m -21.01064,0.22335 3.019879,-0.0037 v -0.899536 c 0,-0.887148 -0.01503,-0.899523 -1.092302,-0.898209 -0.60076,6.11e-4 -2.21993,0.07599 -3.59815,0.167265 l -2.505854,0.16594 v 0.890754 c 0,0.798316 0.06,0.874665 0.578272,0.735778 0.318049,-0.08523 1.937219,-0.156553 3.598155,-0.158483 z m 12.786294,-0.646034 v -0.899537 l -1.734824,-0.0019 c -0.954153,-0.0013 -2.515496,-0.07557 -3.469651,-0.165669 l -1.734824,-0.163844 v 0.924958 0.924961 l 1.734824,0.08992 c 0.954155,0.04944 2.515498,0.112562 3.469651,0.140249 l 1.734824,0.05036 z M 41.855484,39.90894 c 1.278913,-0.153619 1.349311,-0.200801 1.349311,-0.90446 v -0.742392 l -1.73483,0.148775 c -3.20795,0.27512 -3.40539,0.335056 -3.40539,1.033735 0,0.581603 0.09535,0.630703 1.2208,0.628644 0.671444,-0.0013 1.827988,-0.07516 2.570109,-0.164302 z m 42.728069,-0.471094 c 0,-0.73532 -0.194254,-0.798763 -3.148384,-1.028188 l -1.991833,-0.154694 v 0.76547 c 0,0.867344 0.240229,0.938872 3.405391,1.013913 1.686644,0.03997 1.734826,0.0234 1.734826,-0.596501 z m -35.274755,-0.03245 c 1.015452,-0.12314 1.092301,-0.187223 1.092301,-0.910817 v -0.778357 l -2.248846,0.166721 c -3.489639,0.258707 -3.662404,0.3139 -3.662404,1.169945 v 0.735656 L 46.353176,39.6632 c 1.024832,-0.06895 2.354862,-0.184951 2.955622,-0.257804 z m 28.849479,-0.486481 c 0,-0.872245 -0.03001,-0.899536 -0.989261,-0.899536 -0.544102,0 -1.874132,-0.0748 -2.95563,-0.166221 l -1.966362,-0.166217 v 0.788289 c 0,0.859753 -0.158698,0.815847 4.240685,1.173287 0.565421,0.04595 1.172609,0.102973 1.349302,0.126732 0.204048,0.02744 0.321266,-0.285002 0.321266,-0.856332 z m -8.224346,-0.484399 c 0,-0.978101 0.09496,-0.951673 -4.818957,-1.341383 l -2.120342,-0.168157 v 0.907369 0.90737 l 3.019879,0.172154 c 1.660936,0.09469 3.135536,0.21262 3.276892,0.262075 0.558412,0.195368 0.642528,0.09857 0.642528,-0.739428 z M 58.6897,38.629281 60.167516,38.482939 v -0.876546 -0.876547 l -1.349311,0.150552 c -0.742121,0.08281 -2.332375,0.22838 -3.533901,0.323508 l -2.184591,0.17296 -0.08265,0.863666 -0.08265,0.863658 2.138741,-0.164282 c 1.176306,-0.09036 2.803756,-0.230141 3.616555,-0.310625 z m -2.120341,-2.794485 c 3.588628,-0.32177 3.598157,-0.325284 3.598157,-1.328063 0,-0.840915 -0.04448,-0.888725 -0.706783,-0.759977 -0.388728,0.07557 -2.007897,0.278196 -3.598151,0.450287 l -2.891372,0.312898 v 0.877777 c 0,0.867948 0.01085,0.876203 0.963791,0.737323 0.530082,-0.07724 1.715542,-0.207858 2.634358,-0.290245 z M 69.933931,35.46093 c 0,-0.857603 0.08709,-0.829396 -3.983669,-1.290346 -3.119955,-0.353285 -2.95563,-0.387432 -2.95563,0.614241 v 0.877609 l 1.991839,0.169417 c 1.095509,0.09318 2.107484,0.20957 2.248845,0.258653 0.141355,0.04907 0.806371,0.09836 1.477808,0.109529 1.185529,0.01968 1.220807,-0.0019 1.220807,-0.739096 z m 0,-2.967275 c 0,-0.494743 -0.05432,-0.899535 -0.120724,-0.899535 -0.264507,0 -5.699512,-0.794302 -6.240301,-0.91199 -0.51398,-0.11186 -0.578273,-0.0253 -0.578273,0.778584 0,0.497439 0.0289,0.913206 0.06426,0.923925 0.03533,0.01072 1.509938,0.228794 3.276886,0.484611 1.766954,0.25581 3.299379,0.478348 3.405397,0.49453 0.106014,0.01619 0.19276,-0.375376 0.19276,-0.870125 z m -12.850549,0.257014 c 1.484238,-0.203081 2.785357,-0.372893 2.891374,-0.377373 0.211268,-0.0089 0.273526,-1.807224 0.06255,-1.807224 -0.181375,0 -5.212394,0.733115 -6.230829,0.907945 -0.721551,0.123866 -0.83528,0.246791 -0.83528,0.90278 0,0.909638 0.117963,0.920368 4.112172,0.373872 z m -0.385519,-2.950361 c 1.696276,-0.279746 3.170876,-0.511028 3.276893,-0.513962 0.18077,-0.0049 0.289664,-1.8044 0.109196,-1.8044 -0.160409,0 -5.960987,1.03249 -6.534473,1.16312 -0.440909,0.100441 -0.578272,0.313716 -0.578272,0.897862 0,0.911433 -0.168624,0.899785 3.726653,0.25738 z m 13.236068,-0.25738 c 0,-0.878527 0.20212,-0.803499 -4.06124,-1.507575 l -2.904689,-0.479698 0.07756,0.926937 0.07757,0.92693 2.57011,0.417209 c 1.413559,0.229461 2.945992,0.431857 3.405396,0.449769 0.762849,0.02976 0.835288,-0.03385 0.835289,-0.733572 z"/>
  </g>
</svg>