<?xml version="1.0" encoding="UTF-8" standalone="no"?>
<!-- Created with Inkscape (http://www.inkscape.org/) -->

<svg
   height="16"
   viewBox="0 0 120 120"
   version="1.1"
   id="svg1"
   xml:space="preserve"
   xmlns="http://www.w3.org/2000/svg"
   xmlns:svg="http://www.w3.org/2000/svg"><defs
     id="defs1" /><g
     id="layer1"><path
       style="fill:#89cae2;fill-opacity:1;stroke-width:1.78439"
       d=""
       id="path1" /><path
       style="opacity:1;fill:#000000;stroke-width:2.3684"
       d="M 58.181024,115.6622 C 51.492632,106.69983 23.804589,64.847483 21.964387,60.918324 9.4238511,34.141958 30.256469,2.1029173 60.207694,2.1029173 c 18.599498,0 34.950464,12.4843357 40.562996,30.9707867 2.78259,9.165223 1.01794,23.228767 -3.939634,31.397228 -2.743433,4.520271 -34.5854,51.619168 -35.676151,52.770208 -0.831357,0.8773 -1.34395,0.60516 -2.973881,-1.57894 z M 69.908692,72.70393 C 77.562211,70.605448 85.23819,63.26342 88.582916,54.842133 90.944936,48.895111 90.890848,38.905829 88.463027,32.697462 86.094287,26.640181 79.978085,20.040068 73.843703,16.921464 70.0518,14.993734 67.727763,14.399273 62.83304,14.10506 54.644507,13.612862 49.193034,14.92508 43.425198,18.776692 23.709027,31.942643 26.212813,62.143098 47.812659,71.697736 c 6.646824,2.940209 13.846598,3.268067 22.096033,1.006194 z"
       id="path5" /><path
       style="opacity:1;fill:#edb72e;fill-opacity:1;stroke-width:1.26175"
       d="m 58.520299,112.16027 c -0.70032,-0.88422 -8.71332,-12.760456 -17.80666,-26.391636 -17.5122,-26.251282 -18.08196,-27.251553 -19.49505,-34.225424 -1.0601,-5.231816 -0.68214,-14.067854 0.81602,-19.077269 3.83734,-12.830952 14.30653,-23.1333048 27.47576,-27.0379168 4.55026,-1.349128 11.97134,-1.80694 16.76229,-1.034077 15.75334,2.541287 28.85737,14.8056218 32.58379,30.4958548 1.07014,4.505862 1.152181,12.124333 0.18119,16.825234 -1.44109,6.976747 -1.9346,7.840673 -19.63806,34.377698 -16.39755,24.579536 -18.55172,27.675216 -19.25812,27.675216 -0.19132,0 -0.92084,-0.72345 -1.62116,-1.60768 z m 5.31685,-40.033278 c 10.874,-1.41222 20.10154,-9.125452 23.64452,-19.764291 1.25593,-3.771279 1.56762,-10.502347 0.68166,-14.720438 -1.98229,-9.437711 -9.03279,-17.559836 -18.09999,-20.851054 -6.22335,-2.258954 -13.61632,-2.258954 -19.83967,0 -11.19748,4.064469 -18.64568,14.781086 -18.67257,26.866496 -0.0316,14.206945 10.39499,26.395136 24.33169,28.442559 3.27214,0.480707 4.42884,0.484593 7.95436,0.02673 z"
       id="path6" /><path
       style="opacity:1;fill:#edb72e;fill-opacity:1;stroke-width:0.892193"
       d="m 38.066914,57.546467 c 0,-0.821383 0.0826,-0.892193 1.04089,-0.892193 h 1.04089 V 44.758363 32.862453 h 5.79926 5.79926 v -2.67658 -2.67658 h 1.78438 1.78439 v -1.635688 c 0,-1.437422 0.0721,-1.635687 0.5948,-1.635687 0.50667,0 0.59479,-0.198266 0.59479,-1.33829 v -1.33829 h 1.33829 1.33829 v -2.230483 c 0,-2.032218 0.0529,-2.230484 0.5948,-2.230484 0.54192,0 0.59479,0.198266 0.59479,2.230484 v 2.230483 h 1.48699 1.48699 v 1.33829 c 0,0.991326 0.11565,1.33829 0.4461,1.33829 0.34245,0 0.44609,0.380008 0.44609,1.635687 v 1.635688 h 1.93309 1.93308 v 5.055762 5.055762 h 5.35316 5.35316 v 9.516728 9.516729 h 1.04089 c 0.95829,0 1.0409,0.07081 1.0409,0.892193 v 0.892193 h -21.41264 -21.41264 z m 9.81413,-2.081784 v -1.189591 h -1.1896 -1.18959 v 1.189591 1.189591 h 1.18959 1.1896 z m 13.0855,-0.743495 v -1.933085 h -1.18959 -1.1896 v 1.933085 1.933086 h 1.1896 1.18959 z m 12.4907,0.297398 v -1.635688 h -1.18959 -1.18959 v 1.635688 1.635688 h 1.18959 1.18959 z m -27.95539,-3.420074 c 0,-0.793062 -0.0991,-0.892194 -0.89219,-0.892194 -0.79306,0 -0.89219,0.09913 -0.89219,0.892194 0,0.793061 0.0991,0.892193 0.89219,0.892193 0.79306,0 0.89219,-0.09913 0.89219,-0.892193 z m 4.16357,0 c 0,-0.793062 -0.0991,-0.892194 -0.89219,-0.892194 -0.79306,0 -0.89219,0.09913 -0.89219,0.892194 0,0.793061 0.0991,0.892193 0.89219,0.892193 0.79306,0 0.89219,-0.09913 0.89219,-0.892193 z m 25.57621,-0.892194 c 0,-0.555143 -0.19827,-0.594795 -2.97398,-0.594795 -2.77571,0 -2.97398,0.03965 -2.97398,0.594795 0,0.555144 0.19827,0.594796 2.97398,0.594796 2.77571,0 2.97398,-0.03965 2.97398,-0.594796 z m -18.14126,-0.743494 c 0,-0.958281 -0.0708,-1.040892 -0.8922,-1.040892 -0.82138,0 -0.89219,0.08261 -0.89219,1.040892 0,0.958281 0.0708,1.040892 0.89219,1.040892 0.82139,0 0.8922,-0.08261 0.8922,-1.040892 z m 3.56877,0 c 0,-0.958281 -0.0708,-1.040892 -0.89219,-1.040892 -0.82139,0 -0.8922,0.08261 -0.8922,1.040892 0,0.958281 0.0708,1.040892 0.8922,1.040892 0.82138,0 0.89219,-0.08261 0.89219,-1.040892 z m 3.86617,0 c 0,-0.991325 -0.0496,-1.040892 -1.04089,-1.040892 -0.99133,0 -1.04089,0.04957 -1.04089,1.040892 0,0.991325 0.0496,1.040892 1.04089,1.040892 0.99132,0 1.04089,-0.04957 1.04089,-1.040892 z m -19.03346,-1.933085 c 0,-0.793062 -0.0991,-0.892194 -0.89219,-0.892194 -0.79306,0 -0.89219,0.09913 -0.89219,0.892194 0,0.793061 0.0991,0.892193 0.89219,0.892193 0.79306,0 0.89219,-0.09913 0.89219,-0.892193 z m 4.16357,0 c 0,-0.793062 -0.0991,-0.892194 -0.89219,-0.892194 -0.79306,0 -0.89219,0.09913 -0.89219,0.892194 0,0.793061 0.0991,0.892193 0.89219,0.892193 0.79306,0 0.89219,-0.09913 0.89219,-0.892193 z m 25.57621,-0.297398 c 0,-0.555144 -0.19827,-0.594796 -2.97398,-0.594796 -2.77571,0 -2.97398,0.03965 -2.97398,0.594796 0,0.555143 0.19827,0.594795 2.97398,0.594795 2.77571,0 2.97398,-0.03965 2.97398,-0.594795 z m -18.14126,-1.33829 c 0,-0.958282 -0.0708,-1.040892 -0.8922,-1.040892 -0.82138,0 -0.89219,0.08261 -0.89219,1.040892 0,0.958281 0.0708,1.040892 0.89219,1.040892 0.82139,0 0.8922,-0.08261 0.8922,-1.040892 z m 3.56877,0 c 0,-0.958282 -0.0708,-1.040892 -0.89219,-1.040892 -0.82139,0 -0.8922,0.08261 -0.8922,1.040892 0,0.958281 0.0708,1.040892 0.8922,1.040892 0.82138,0 0.89219,-0.08261 0.89219,-1.040892 z m 3.86617,0 c 0,-0.991326 -0.0496,-1.040892 -1.04089,-1.040892 -0.99133,0 -1.04089,0.04957 -1.04089,1.040892 0,0.991325 0.0496,1.040892 1.04089,1.040892 0.99132,0 1.04089,-0.04957 1.04089,-1.040892 z m 10.70632,-1.33829 c 0,-0.555143 -0.19827,-0.594796 -2.97398,-0.594796 -2.77571,0 -2.97398,0.03965 -2.97398,0.594796 0,0.555143 0.19827,0.594796 2.97398,0.594796 2.77571,0 2.97398,-0.03965 2.97398,-0.594796 z m -29.73978,-0.594796 c 0,-0.79306 -0.0991,-0.892193 -0.89219,-0.892193 -0.79306,0 -0.89219,0.09913 -0.89219,0.892193 0,0.793061 0.0991,0.892194 0.89219,0.892194 0.79306,0 0.89219,-0.09913 0.89219,-0.892194 z m 4.16357,0 c 0,-0.79306 -0.0991,-0.892193 -0.89219,-0.892193 -0.79306,0 -0.89219,0.09913 -0.89219,0.892193 0,0.793061 0.0991,0.892194 0.89219,0.892194 0.79306,0 0.89219,-0.09913 0.89219,-0.892194 z m 7.43495,-1.635687 c 0,-0.958282 -0.0708,-1.040892 -0.8922,-1.040892 -0.82138,0 -0.89219,0.08261 -0.89219,1.040892 0,0.958281 0.0708,1.040892 0.89219,1.040892 0.82139,0 0.8922,-0.08261 0.8922,-1.040892 z m 3.56877,0 c 0,-0.958282 -0.0708,-1.040892 -0.89219,-1.040892 -0.82139,0 -0.8922,0.08261 -0.8922,1.040892 0,0.958281 0.0708,1.040892 0.8922,1.040892 0.82138,0 0.89219,-0.08261 0.89219,-1.040892 z m 3.86617,0 c 0,-0.991326 -0.0496,-1.040892 -1.04089,-1.040892 -0.99133,0 -1.04089,0.04957 -1.04089,1.040892 0,0.991326 0.0496,1.040892 1.04089,1.040892 0.99132,0 1.04089,-0.04957 1.04089,-1.040892 z m 10.70632,-0.743495 c 0,-0.555142 -0.19827,-0.594795 -2.97398,-0.594795 -2.77571,0 -2.97398,0.03965 -2.97398,0.594795 0,0.555143 0.19827,0.594796 2.97398,0.594796 2.77571,0 2.97398,-0.03965 2.97398,-0.594796 z m -29.73978,-1.040892 c 0,-0.958281 -0.0708,-1.040892 -0.89219,-1.040892 -0.82138,0 -0.89219,0.08261 -0.89219,1.040892 0,0.958282 0.0708,1.040892 0.89219,1.040892 0.82138,0 0.89219,-0.08261 0.89219,-1.040892 z m 4.16357,0 c 0,-0.958281 -0.0708,-1.040892 -0.89219,-1.040892 -0.82139,0 -0.89219,0.08261 -0.89219,1.040892 0,0.958282 0.0708,1.040892 0.89219,1.040892 0.82138,0 0.89219,-0.08261 0.89219,-1.040892 z m 7.43495,-1.784386 c 0,-0.958282 -0.0708,-1.040893 -0.8922,-1.040893 -0.82138,0 -0.89219,0.08261 -0.89219,1.040893 0,0.958281 0.0708,1.040892 0.89219,1.040892 0.82139,0 0.8922,-0.08261 0.8922,-1.040892 z m 3.56877,0 c 0,-0.958282 -0.0708,-1.040893 -0.89219,-1.040893 -0.82139,0 -0.8922,0.08261 -0.8922,1.040893 0,0.958281 0.0708,1.040892 0.8922,1.040892 0.82138,0 0.89219,-0.08261 0.89219,-1.040892 z m 3.86617,0 c 0,-0.991326 -0.0496,-1.040893 -1.04089,-1.040893 -0.99133,0 -1.04089,0.04957 -1.04089,1.040893 0,0.991325 0.0496,1.040892 1.04089,1.040892 0.99132,0 1.04089,-0.04957 1.04089,-1.040892 z m -19.03346,-1.784387 c 0,-0.958282 -0.0708,-1.040892 -0.89219,-1.040892 -0.82138,0 -0.89219,0.08261 -0.89219,1.040892 0,0.958282 0.0708,1.040892 0.89219,1.040892 0.82138,0 0.89219,-0.08261 0.89219,-1.040892 z m 4.16357,0 c 0,-0.958282 -0.0708,-1.040892 -0.89219,-1.040892 -0.82139,0 -0.89219,0.08261 -0.89219,1.040892 0,0.958282 0.0708,1.040892 0.89219,1.040892 0.82138,0 0.89219,-0.08261 0.89219,-1.040892 z m 7.43495,-1.635688 c 0,-0.79306 -0.0991,-0.892193 -0.8922,-0.892193 -0.79306,0 -0.89219,0.09913 -0.89219,0.892193 0,0.793061 0.0991,0.892194 0.89219,0.892194 0.79306,0 0.8922,-0.09913 0.8922,-0.892194 z m 3.56877,0 c 0,-0.79306 -0.0991,-0.892193 -0.89219,-0.892193 -0.79306,0 -0.8922,0.09913 -0.8922,0.892193 0,0.793061 0.0991,0.892194 0.8922,0.892194 0.79306,0 0.89219,-0.09913 0.89219,-0.892194 z m 3.86617,0 c 0,-0.821384 -0.0826,-0.892193 -1.04089,-0.892193 -0.95828,0 -1.04089,0.07081 -1.04089,0.892193 0,0.821385 0.0826,0.892194 1.04089,0.892194 0.95828,0 1.04089,-0.07081 1.04089,-0.892194 z m -7.43494,-3.568773 c 0,-0.793061 -0.0991,-0.892193 -0.8922,-0.892193 -0.79306,0 -0.89219,0.09913 -0.89219,0.892193 0,0.793061 0.0991,0.892194 0.89219,0.892194 0.79306,0 0.8922,-0.09913 0.8922,-0.892194 z m 3.56877,0 c 0,-0.793061 -0.0991,-0.892193 -0.89219,-0.892193 -0.79306,0 -0.8922,0.09913 -0.8922,0.892193 0,0.793061 0.0991,0.892194 0.8922,0.892194 0.79306,0 0.89219,-0.09913 0.89219,-0.892194 z m 3.86617,0 c 0,-0.821384 -0.0826,-0.892193 -1.04089,-0.892193 -0.95828,0 -1.04089,0.07081 -1.04089,0.892193 0,0.821385 0.0826,0.892194 1.04089,0.892194 0.95828,0 1.04089,-0.07081 1.04089,-0.892194 z"
       id="path7" /></g><style
     type="text/css"
     id="style1">.st0{fill-rule:evenodd;clip-rule:evenodd;}</style><style
     type="text/css"
     id="style1-5">.st0{fill-rule:evenodd;clip-rule:evenodd;}</style><style
     type="text/css"
     id="style1-52">.st0{fill-rule:evenodd;clip-rule:evenodd;}</style><style
     type="text/css"
     id="style1-4">
	.st0{fill:#000000;}
</style></svg>
