<svg height="44" viewBox="0 0 120 120" xmlns="http://www.w3.org/2000/svg">
  <path fill="#000000" d="M 58.181024,115.6622 C 51.492632,106.69983 23.804589,64.847483 21.964387,60.918324 9.4238511,34.141958 30.256469,2.1029173 60.207694,2.1029173 c 18.599498,0 34.950464,12.4843357 40.562996,30.9707867 2.78259,9.165223 1.01794,23.228767 -3.939634,31.397228 -2.743433,4.520271 -34.5854,51.619168 -35.676151,52.770208 -0.831357,0.8773 -1.34395,0.60516 -2.973881,-1.57894 z M 69.908692,72.70393 C 77.562211,70.605448 85.23819,63.26342 88.582916,54.842133 90.944936,48.895111 90.890848,38.905829 88.463027,32.697462 86.094287,26.640181 79.978085,20.040068 73.843703,16.921464 70.0518,14.993734 67.727763,14.399273 62.83304,14.10506 54.644507,13.612862 49.193034,14.92508 43.425198,18.776692 23.709027,31.942643 26.212813,62.143098 47.812659,71.697736 c 6.646824,2.940209 13.846598,3.268067 22.096033,1.006194 z"/>
  <g fill="#ffdd55">
    <path d="m 59.001424,113.71023 c -1.32105,-1.47324 -33.22081,-49.070169 -34.45175,-51.404679 -2.93097,-5.55867 -4.32496,-11.40901 -4.32496,-18.15118 0,-11.01693 3.89354,-20.37972 11.73644,-28.22262 6.00396,-6.0039508 13.06935,-9.7383308 21.27413,-11.2443408 3.5351,-0.64888 10.23894,-0.65609 13.77175,-0.0148 14.71475,2.67099 26.76623,13.2637808 31.2945,27.5066708 1.31668,4.14139 1.811756,7.42957 1.803016,11.97511 -0.0123,6.4003 -1.422826,12.43749 -4.158436,17.79868 -1.04374,2.0455 -33.31266,50.296089 -34.70889,51.898989 -0.59448,0.68248 -1.55108,0.62181 -2.2358,-0.14181 z m 5.19161,-41.359779 c 14.56651,-2.02602 25.28594,-15.16202 24.39758,-29.89775 -0.92031,-15.26553 -13.21069,-26.80134 -28.55446,-26.80134 -15.69164,0 -28.35539,12.66375 -28.35539,28.35539 0,17.52327 15.17746,30.75474 32.51227,28.3437 z"/>
    <g transform="matrix(1.5320475,0,0,1.5320475,35.313177,14.830493)">
      <path d="M 22.084,13.754 V 8.079 L 20.802,7.832 V 4.712 L 16.235,3.608 V 3.602 L 16.219,3.605 16.204,3.602 v 0.007 l -4.79,1.148 V 7.898 L 10.112,8.146 V 13.92 L 0,14.929 v 11.555 l 16.232,1.915 0.959,-0.113 v -5.477 l 4.318,-0.164 v 5.127 L 32,26.545 V 14.773 Z m -20.957,1.93 3.223,-0.27 v 0.815 l -3.223,0.225 z m 3.223,7.57 -3.223,-0.17 v -0.771 l 3.223,0.124 z m 0,-1.664 -3.223,-0.076 V 20.743 L 4.35,20.774 Z M 4.358,19.766 1.134,19.791 V 19.02 l 3.224,-0.07 z m 0,-1.665 -3.224,0.119 V 17.449 L 4.358,17.283 Z M 5.257,15.35 9.006,15.037 v 0.883 l -3.749,0.26 z m 3.749,8.164 -3.749,-0.199 v -0.828 l 3.749,0.146 z m 0,-1.801 -3.749,-0.09 v -0.828 l 3.749,0.037 z M 9.017,19.742 5.266,19.77 v -0.828 l 3.751,-0.083 z m 0,-1.801 -3.751,0.139 v -0.83 l 3.751,-0.19 z m 1.761,-8.704 4.52,-0.777 v 0.971 l -4.52,0.713 z m 0,1.851 4.52,-0.646 v 0.972 l -4.52,0.582 z m -0.01,1.882 4.519,-0.514 v 0.972 l -4.519,0.449 z m 0,1.85 4.519,-0.383 v 0.972 l -4.519,0.318 z m 4.518,8.952 -4.519,-0.233 v -0.907 l 4.519,0.17 z m 0,-1.981 -4.519,-0.104 V 20.78 l 4.519,0.039 z m 0.013,-2.172 -4.521,0.039 v -0.906 l 4.521,-0.104 z m 0,-1.982 -4.521,0.171 V 16.9 l 4.521,-0.233 z m 1.867,-9.129 4.322,0.746 v 0.933 L 17.166,9.504 Z m -0.025,4.049 4.324,0.488 v 0.933 l -4.324,-0.425 z m 0.011,1.969 4.324,0.362 v 0.934 l -4.324,-0.3 z m 0.019,4.2 4.322,0.096 v 0.933 l -4.322,-0.03 z m 4.328,3.009 -4.319,0.103 v -0.996 l 4.319,-0.039 z m 0,-3.86 -4.319,-0.159 v -0.995 l 4.319,0.223 z m 0,-5.844 -4.319,-0.557 v -0.996 l 4.319,0.62 z m 1.626,2.974 3.617,0.305 v 0.855 l -3.617,-0.252 z m 3.637,2.189 v 0.855 l -3.613,-0.136 v -0.907 z m -3.621,1.642 3.616,0.08 v 0.855 l -3.616,-0.027 z m 0.005,1.93 3.615,-0.031 v 0.855 l -3.615,0.084 z m 3.625,2.512 -3.614,0.19 V 22.56 l 3.614,-0.138 z m 1.027,-7.882 3.106,0.262 v 0.795 l -3.106,-0.216 z m 3.123,2.012 v 0.793 l -3.104,-0.115 v -0.84 z m -3.109,1.53 3.104,0.069 v 0.794 l -3.104,-0.023 z m 0.004,1.783 3.104,-0.026 v 0.794 l -3.104,0.073 z m 3.114,2.336 -3.104,0.163 v -0.841 l 3.104,-0.116 z"/>
    </g>
  </g>
</svg>