<?xml version="1.0" encoding="UTF-8" standalone="no"?>
<!-- Created with Inkscape (http://www.inkscape.org/) -->

<svg
   height="16"
   viewBox="0 0 120 120"
   version="1.1"
   id="svg1"
   xml:space="preserve"
   xmlns="http://www.w3.org/2000/svg"
   xmlns:svg="http://www.w3.org/2000/svg"><defs
     id="defs1" /><g
     id="layer1"><path
       style="fill:#89cae2;fill-opacity:1;stroke-width:1.78439"
       d=""
       id="path1" /><path
       style="opacity:1;fill:#000000;stroke-width:2.3684"
       d="M 58.181024,115.6622 C 51.492632,106.69983 23.804589,64.847483 21.964387,60.918324 9.4238511,34.141958 30.256469,2.1029173 60.207694,2.1029173 c 18.599498,0 34.950464,12.4843357 40.562996,30.9707867 2.78259,9.165223 1.01794,23.228767 -3.939634,31.397228 -2.743433,4.520271 -34.5854,51.619168 -35.676151,52.770208 -0.831357,0.8773 -1.34395,0.60516 -2.973881,-1.57894 z M 69.908692,72.70393 C 77.562211,70.605448 85.23819,63.26342 88.582916,54.842133 90.944936,48.895111 90.890848,38.905829 88.463027,32.697462 86.094287,26.640181 79.978085,20.040068 73.843703,16.921464 70.0518,14.993734 67.727763,14.399273 62.83304,14.10506 54.644507,13.612862 49.193034,14.92508 43.425198,18.776692 23.709027,31.942643 26.212813,62.143098 47.812659,71.697736 c 6.646824,2.940209 13.846598,3.268067 22.096033,1.006194 z"
       id="path5" /><path
       style="opacity:1;fill:#ffc736;fill-opacity:1;stroke-width:1.78439"
       d="M 59.179112,113.08093 C 53.815142,105.62609 25.803945,63.040988 24.447631,60.27906 15.341476,41.735756 23.764191,18.745935 43.246076,8.9686549 c 6.22083,-3.12202 11.066031,-4.0845 18.910056,-3.75642 10.396047,0.43483 17.818724,3.77442 25.531276,11.4869701 7.502763,7.50277 11.032208,15.338666 11.499789,25.531277 0.35015,7.632856 -0.465648,11.937307 -3.381853,17.843866 -3.23492,6.552089 -34.550298,53.829002 -35.655365,53.829002 -0.208512,0 -0.645403,-0.37009 -0.970867,-0.82242 z M 69.365822,71.64804 C 79.583611,68.132602 87.415123,58.670261 88.552485,48.465943 89.278986,41.947873 88.447676,36.493617 85.957327,31.439051 78.743879,16.798155 60.80503,11.273665 45.752681,19.057545 c -2.752966,1.42361 -7.915095,6.43599 -10.001787,9.711645 -3.280965,5.1504 -4.386648,9.678203 -4.100901,16.793308 0.230686,5.744083 0.44525,6.710284 2.407922,10.843112 6.473917,13.632229 21.337645,20.048907 35.307907,15.24243 z"
       id="path7" /><g
       id="g9"
       transform="matrix(0.46913671,0,0,0.46913671,-11.822651,98.861922)"><path
         style="opacity:1;fill:#ffc736;fill-opacity:1;stroke-width:1.78439"
         d="m 113.7249,-78.929365 c -0.53585,-0.535852 -0.71277,-7.9856 -0.70981,-29.888475 l 0.004,-29.17472 7.49758,-9.50778 c 17.72796,-22.48106 18.11624,-22.94262 18.90711,-22.47571 1.18068,0.69704 25.66168,31.60351 25.26361,31.89448 -1.14662,0.83813 -12.43133,10.97167 -13.46057,12.08744 l -1.33829,1.4508 v 23.16386 23.163859 H 147.558 c -4.26673,0 -4.21222,0.104738 -4.21222,-8.093376 v -7.371307 h -4.16357 -4.16357 v 7.018587 c 0,4.665838 -0.23926,7.25785 -0.71375,7.732342 -0.49603,0.496029 -3.63486,0.713754 -10.28996,0.713754 -6.6551,0 -9.79393,-0.217725 -10.28997,-0.713754 z m 14.15614,-32.892195 v -3.86617 h -3.86617 -3.86617 v 3.86617 3.86617 h 3.86617 3.86617 z m 15.46468,0 v -3.86617 h -4.16357 -4.16357 v 3.86617 3.86617 h 4.16357 4.16357 z m -15.46468,-22.60223 v -3.86617 h -3.86617 -3.86617 v 3.86617 3.86617 h 3.86617 3.86617 z m 15.46468,0 v -3.86617 h -4.16357 -4.16357 v 3.86617 3.86617 h 4.16357 4.16357 z"
         id="path8" /><path
         style="opacity:1;fill:#ffc736;fill-opacity:1;stroke-width:1.78439"
         d="m 158.92936,-78.929365 c -0.52356,-0.523567 -0.71375,-5.490467 -0.71375,-18.640184 v -17.926431 l 8.68886,-7.01283 c 4.77887,-3.85706 9.05558,-7.04518 9.5038,-7.08472 0.44822,-0.0395 4.83563,3.11824 9.7498,7.0173 l 8.93486,7.0892 v 17.921953 c 0,13.146239 -0.1902,18.112154 -0.71375,18.635712 -0.74714,0.747141 -10.85638,1.029677 -12.6205,0.35272 -0.78789,-0.302342 -0.94084,-1.559366 -0.94084,-7.732342 v -7.371307 h -4.16357 -4.16357 v 7.018587 c 0,4.66584 -0.23926,7.25785 -0.71375,7.732342 -0.97218,0.972178 -11.87541,0.972178 -12.84759,0 z m 14.15614,-25.457245 v -4.16357 h -4.16357 -4.16357 v 4.16357 4.16356 h 4.16357 4.16357 z m 14.86989,0 v -4.16357 h -3.86618 -3.86617 v 4.16357 4.16356 h 3.86617 3.86618 z"
         id="path9" /></g></g><style
     type="text/css"
     id="style1">.st0{fill-rule:evenodd;clip-rule:evenodd;}</style><style
     type="text/css"
     id="style1-5">.st0{fill-rule:evenodd;clip-rule:evenodd;}</style><style
     type="text/css"
     id="style1-52">.st0{fill-rule:evenodd;clip-rule:evenodd;}</style><style
     type="text/css"
     id="style1-4">
	.st0{fill:#000000;}
</style></svg>
