<?xml version="1.0" encoding="UTF-8" standalone="no"?>
<!-- Created with Inkscape (http://www.inkscape.org/) -->

<svg
   height="12px"
   viewBox="0 0 120 120"
   version="1.1"
   id="svg1"
   xml:space="preserve"
   xmlns="http://www.w3.org/2000/svg"
   xmlns:svg="http://www.w3.org/2000/svg"><defs
     id="defs1" /><g
     id="layer1"><path
       style="fill:#89cae2;fill-opacity:1;stroke-width:1.78439"
       d=""
       id="path1" /><path
       style="opacity:1;fill:#000000;stroke-width:2.3684"
       d="M 58.181024,115.6622 C 51.492632,106.69983 23.804589,64.847483 21.964387,60.918324 9.4238511,34.141958 30.256469,2.1029173 60.207694,2.1029173 c 18.599498,0 34.950464,12.4843357 40.562996,30.9707867 2.78259,9.165223 1.01794,23.228767 -3.939634,31.397228 -2.743433,4.520271 -34.5854,51.619168 -35.676151,52.770208 -0.831357,0.8773 -1.34395,0.60516 -2.973881,-1.57894 z M 69.908692,72.70393 C 77.562211,70.605448 85.23819,63.26342 88.582916,54.842133 90.944936,48.895111 90.890848,38.905829 88.463027,32.697462 86.094287,26.640181 79.978085,20.040068 73.843703,16.921464 70.0518,14.993734 67.727763,14.399273 62.83304,14.10506 54.644507,13.612862 49.193034,14.92508 43.425198,18.776692 23.709027,31.942643 26.212813,62.143098 47.812659,71.697736 c 6.646824,2.940209 13.846598,3.268067 22.096033,1.006194 z"
       id="path5" /><path
       style="opacity:1;fill:#fce65d;fill-opacity:1;stroke-width:0.892193"
       d="m 59.652442,112.69545 c -0.76281,-0.7628 -7.22189,-10.34042 -17.38057,-25.772151 C 24.245282,59.539675 23.507482,58.293373 22.146092,52.926604 19.084778,40.858556 22.084492,28.58791 30.555162,18.52872 35.314282,12.8771 42.870672,7.9351325 49.775812,5.9581905 c 7.46668,-2.137706 18.13282,-1.470044 25.49798,1.596083 8.62303,3.5897785 18.00415,13.3181995 21.29743,22.0859095 1.91588,5.100648 2.28012,7.37928 2.29777,14.374685 0.0142,5.624404 -0.0525,6.49669 -0.67063,8.773234 -0.84944,3.128328 -2.89197,7.454089 -5.54679,11.747213 -7.88693,12.753989 -27.68202,42.519325 -31.40132,47.217285 -1.02843,1.29904 -1.1625,1.37816 -1.59781,0.94285 z m 7.41075,-40.817061 c 7.68396,-2.122492 13.50881,-6.43326 17.77908,-13.157673 4.29783,-6.767823 5.28636,-16.887953 2.44421,-25.022803 -1.86241,-5.330638 -5.94737,-10.646553 -10.68716,-13.907611 -3.70304,-2.547763 -9.46159,-4.507824 -14.45306,-4.919445 -7.13034,-0.588003 -15.35243,1.940197 -20.15291,6.196793 -6.10618,5.414371 -9.19963,10.614401 -10.20117,17.147962 -0.45541,2.97087 -0.17786,11.163473 0.45715,13.493897 0.60475,2.219352 3.13223,7.155111 4.80018,9.373981 4.17889,5.559149 10.4435,9.623503 17.06638,11.072324 3.32202,0.726724 9.81576,0.587581 12.9473,-0.277425 z"
       id="path9" /><g
       id="g20"
       transform="matrix(0.49293541,0,0,0.49293541,-12.60162,71.730727)"><path
         style="opacity:1;fill:#fce65d;fill-opacity:1;stroke-width:1.78439"
         d="m 106.1566,-45.837388 c 0.47902,-0.449226 6.72764,-5.678252 13.88581,-11.620058 11.49526,-9.541907 13.12728,-10.707242 13.9777,-9.98072 0.52955,0.45241 6.80704,5.681436 13.94997,11.620058 l 12.98714,10.797494 h -27.83579 c -23.62687,0 -27.70409,-0.1235 -26.96483,-0.816774 z"
         id="path10" /><path
         style="opacity:1;fill:#fce65d;fill-opacity:1;stroke-width:1.26175"
         d="m 112.29591,-28.389417 v -12.196934 h 20.81891 20.8189 v 12.196934 12.196935 h -2.94409 -2.94408 v -7.780803 -7.780803 h -5.2573 -5.2573 v 7.780803 7.780803 h -12.61752 -12.61752 z m 15.98219,-1.472044 v -5.257299 h -5.2573 -5.2573 v 5.257299 5.2573 h 5.2573 5.2573 z"
         id="path11" /><path
         style="opacity:1;fill:#fce65d;fill-opacity:1;stroke-width:1.26175"
         d="m 157.71898,-33.01584 v -7.570511 l 7.46536,-0.01725 7.46537,-0.01725 -1.84158,-1.665087 -1.84157,-1.665086 h 10.14811 10.1481 v 9.252847 9.252847 h -4.62642 -4.62642 v -6.308759 -6.30876 h -5.2573 -5.2573 v 6.30876 6.308759 h -5.88818 -5.88817 z"
         id="path12" /><path
         style="opacity:1;fill:#fce65d;fill-opacity:1;stroke-width:1.26175"
         d="m 161.18721,-50.339807 c -2.35447,-1.978581 -2.94657,-2.689378 -2.59407,-3.114107 0.25121,-0.302691 3.6208,-3.177869 7.48798,-6.389285 l 7.03124,-5.838938 10.25575,8.545846 c 5.64065,4.700217 10.44793,8.738035 10.68282,8.97293 0.28906,0.289054 -4.45954,0.420656 -14.69291,0.407199 l -15.11999,-0.01988 z"
         id="path13" /><path
         style="opacity:1;fill:#fce65d;fill-opacity:1;stroke-width:1.26175"
         d="m 167.39241,-71.709563 v -1.261752 l 4.52128,-0.01725 4.52127,-0.01725 -1.84157,-1.665086 c -1.78192,-1.611147 -1.80576,-1.665087 -0.73602,-1.665087 1.02989,0 1.10555,-0.129521 1.10555,-1.892628 v -1.892627 h -1.68234 c -1.58887,0 -1.68233,0.0701 -1.68233,1.261752 0,0.693963 -0.1059,1.261751 -0.23534,1.261751 -0.12943,0 -1.07574,-0.702498 -2.10292,-1.561107 -1.21079,-1.012097 -1.86758,-1.899564 -1.86758,-2.523504 v -0.962396 h 10.93518 10.93518 v 6.098467 6.098467 h -1.26175 -1.26175 v -3.995547 -3.995548 h -2.10292 -2.10292 v 3.995548 3.995547 h -7.57051 -7.57051 z"
         id="path14" /><path
         style="opacity:1;fill:#fce65d;fill-opacity:1;stroke-width:1.26175"
         d="m 165.30451,-87.415063 c 0.33872,-0.310462 2.98164,-2.518454 5.87315,-4.906648 2.89152,-2.388195 5.64606,-4.687376 6.1212,-5.109293 0.85049,-0.755221 0.9549,-0.691621 6.72934,4.099322 3.226,2.676544 6.23872,5.229741 6.69493,5.67377 0.81837,0.796509 0.6495,0.807327 -12.60249,0.807327 -11.26285,0 -13.33253,-0.09116 -12.81613,-0.564478 z"
         id="path15" /><path
         style="opacity:1;fill:#fce65d;fill-opacity:1;stroke-width:1.26175"
         d="m 123.87365,-77.984405 c 0.45622,-0.443987 5.17062,-4.415798 10.47645,-8.826246 8.37268,-6.959761 9.73379,-7.944669 10.30431,-7.456291 0.36154,0.309489 4.82112,4.020597 9.91019,8.246906 5.08906,4.22631 9.52998,7.944903 9.8687,8.26354 0.52359,0.492553 -2.53043,0.579341 -20.38664,0.579341 -20.71606,0 -20.99118,-0.01101 -20.17301,-0.80725 z"
         id="path16" /><path
         style="opacity:1;fill:#fce65d;fill-opacity:1;stroke-width:1.26175"
         d="m 144.32931,-64.406961 -10.23528,-8.564354 h 12.86393 12.86394 v 6.453214 6.453215 l -1.99778,1.646733 c -1.09877,0.905704 -2.28166,1.855717 -2.62865,2.11114 -0.51084,0.376045 -2.57832,-1.165116 -10.86616,-8.099948 z m 11.70733,-2.465887 v -3.574964 h -3.78525 -3.78526 v 3.574964 3.574964 h 3.78526 3.78525 z"
         id="path17" /><path
         style="opacity:1;fill:#fce65d;fill-opacity:1;stroke-width:1.26175"
         d="m 108.93124,-83.06533 v -5.888175 h 10.60806 c 10.46662,0 10.597,0.01076 9.77858,0.807109 -0.45622,0.44391 -3.5738,3.090295 -6.92795,5.880855 l -6.09847,5.073746 -3.68011,0.0073 -3.68011,0.0073 z m 7.99109,-1.682336 v -2.102919 h -1.89262 -1.89263 v 2.102919 2.10292 h 1.89263 1.89262 z"
         id="path18" /><path
         style="opacity:1;fill:#fce65d;fill-opacity:1;stroke-width:1.26175"
         d="m 106.84334,-93.729072 c 0.33872,-0.31335 3.41031,-2.889221 6.82576,-5.724158 5.53266,-4.59229 6.28923,-5.09205 6.93726,-4.58243 2.51454,1.97749 12.71875,10.567703 12.71875,10.707035 0,0.0931 -6.09697,0.16928 -13.54881,0.16928 -11.41979,0 -13.45204,-0.08953 -12.93296,-0.569727 z"
         id="path19" /><path
         style="opacity:1;fill:#fce65d;fill-opacity:1;stroke-width:1.26175"
         d="m 127.85752,-71.260821 v -1.710494 h 1.89263 c 1.04094,0 1.89262,0.07183 1.89262,0.159627 0,0.0878 -0.85168,0.857518 -1.89262,1.710494 l -1.89263,1.550866 z"
         id="path20" /></g></g><style
     type="text/css"
     id="style1">.st0{fill-rule:evenodd;clip-rule:evenodd;}</style><style
     type="text/css"
     id="style1-5">.st0{fill-rule:evenodd;clip-rule:evenodd;}</style><style
     type="text/css"
     id="style1-52">.st0{fill-rule:evenodd;clip-rule:evenodd;}</style><style
     type="text/css"
     id="style1-4">
	.st0{fill:#000000;}
</style></svg>
